<svg width="40" height="40" viewBox="0 0 40 40" fill="none" xmlns="http://www.w3.org/2000/svg">
<path d="M20.0006 40C8.97278 40 0.000976562 31.0279 0.000976562 19.9997C0.000976563 8.97181 8.97278 0 20.0006 0C31.0285 0 40.0003 8.97181 40.0003 19.9997C40.0003 31.0279 31.0285 40 20.0006 40ZM20.0006 1.97255C10.0606 1.97255 1.97353 10.0597 1.97353 19.9997C1.97353 29.94 10.0606 38.0275 20.0006 38.0275C29.9406 38.0275 38.0278 29.94 38.0278 19.9997C38.0278 10.0597 29.9406 1.97255 20.0006 1.97255Z" fill="black"/>
<path d="M19.9345 33.0188C16.6335 33.0188 13.9482 30.6251 13.9482 27.6827H15.9207C15.9207 29.5376 17.7213 31.0463 19.9345 31.0463C22.1474 31.0463 23.9477 29.5373 23.9477 27.6827H25.9202C25.9202 30.6248 23.2349 33.0188 19.9345 33.0188Z" fill="black"/>
<path d="M15.2484 21.7698H13.2759C13.2759 19.9823 12.0605 18.5282 10.5663 18.5282C9.07206 18.5282 7.85664 19.9823 7.85664 21.7698H5.88409C5.88409 18.8944 7.98453 16.5557 10.5663 16.5557C13.148 16.5557 15.2484 18.8944 15.2484 21.7698Z" fill="black"/>
<path d="M34.1155 21.7698H32.143C32.143 19.9823 30.9275 18.5282 29.4333 18.5282C27.9391 18.5282 26.7237 19.9823 26.7237 21.7698H24.7512C24.7512 18.8944 26.8516 16.5557 29.4333 16.5557C32.0151 16.5557 34.1155 18.8944 34.1155 21.7698Z" fill="black"/>
</svg>
